<?xml version="1.0" encoding="utf-8"?>
<!-- Generator: Adobe Illustrator 23.1.0, SVG Export Plug-In . SVG Version: 6.00 Build 0)  -->
<svg version="1.1" id="Capa_1" xmlns="http://www.w3.org/2000/svg" xmlns:xlink="http://www.w3.org/1999/xlink" x="0px" y="0px"
	 viewBox="0 0 264.2 79.2" style="enable-background:new 0 0 264.2 79.2;" xml:space="preserve">
<style type="text/css">
	.st0{fill:#FFFFFF;}
</style>
<title>logoUniandes</title>
<g>
	<path id="XMLID_1_" class="st0" d="M62.1,70.8c-13.7,8.9-27.9,8.4-27.9,8.4s-0.4-1.8-0.2-4.9s1.9-2.2,3.1-4.7
		c0.4-0.9,0.8-1.5,1.5-3.6c0-0.1-0.8-15.1-1-21.4c-0.1-3.4-0.8-9.1-1.5-14.7c-0.4-3.3-1.4-5.9-1.9-9c-0.7-4.5-1.4-9.6-1.4-9.6
		c-0.6,1.4-1.4,6.8-2.2,12.9c-0.4,2.9-0.8,6-1.1,8.9c-0.8,6.1-2.7,22.4-3,23.3C26,57.5,26,55.8,26,55.8s1.1-17.1,1.5-24.6
		c0.2-3.7,0.4-7.7,0.9-11.6c0.3-2.9,0.8-5.7,1.4-8.2c0,0,2-5.9,2.6-6s2.9,3.7,3.6,7.1c1.7,7.7,2.7,8.7,4.1,16.8
		c1.3,7.7,2.4,14.1,2.5,15.2c0.6,3.8,0.3,15.7-0.7,20.5c-0.2,1.3-0.3,1.8-1.1,2.6c-2,2-3.4,4.4-3.4,6s-0.3,1.5,0.1,2.4
		c0,0,2.6,3.9,17.7-5c0,0,4.7-2.5,4.7-7.9V8.3c0,0-14.9-5-26.4-5s-25.9,5-25.9,5V63c0,3.4,0.5,9.7,5.3,11.8c0,0-12.8-4.4-12.8-11.9
		V3.6C0,3.6,19.5,0,33.4,0s33.7,3.6,33.7,3.6V63C67.1,68.1,62.1,70.8,62.1,70.8"/>
	<path id="XMLID_3844_" class="st0" d="M247.9,24.9c-1.4,0.8-3.2,1.1-5.5,1.1s-4.1-0.7-5.4-2.1c-1.3-1.4-1.9-3.4-1.9-5.9
		s0.6-4.6,1.9-6.1c1.3-1.4,2.9-2.2,5-2.2c0.9,0,1.7,0.1,2.4,0.3V3.7h3.6v21.2H247.9z M244.3,23.4V12c-0.5-0.1-1-0.2-1.6-0.2
		c-2.8,0-4.2,2-4.2,6c0,3.9,1.3,5.9,3.9,5.9C243.3,23.7,243.9,23.6,244.3,23.4"/>
	<path id="XMLID_3847_" class="st0" d="M264.2,17.7l-9.7,1.4c0.3,2.9,1.7,4.4,4.3,4.4c1.5,0,2.9-0.3,4-0.9l0.8,2.2
		c-1.4,0.7-3.1,1.1-5.2,1.1c-2.3,0-4.1-0.7-5.4-2.1c-1.3-1.4-2-3.5-2-6.1s0.6-4.6,1.8-6s2.8-2.2,4.9-2.2s3.7,0.7,4.8,2.1
		C263.7,13.1,264.2,15.1,264.2,17.7 M260.8,16.3c0-3-1-4.5-3.1-4.5c-1.1,0-1.9,0.4-2.5,1.3c-0.6,1-0.9,2.3-0.9,4.2L260.8,16.3z"/>
	<rect id="XMLID_3850_" x="78.7" y="33.2" class="st0" width="5.6" height="34.7"/>
	<path id="XMLID_3851_" class="st0" d="M110.2,55.5c0,3.8-0.8,6.9-2.5,9.1c-1.8,2.4-4.4,3.7-7.8,3.7c-3.3,0-5.9-1.2-7.8-3.7
		c-1.7-2.3-2.5-5.3-2.5-9.1c0-3.9,0.8-6.9,2.5-9.2c1.8-2.4,4.4-3.7,7.8-3.7s6,1.2,7.8,3.7C109.3,48.6,110.2,51.7,110.2,55.5
		 M104.6,55.5c0-6.2-1.6-9.3-4.7-9.3c-3.2,0-4.7,3.1-4.7,9.3c0,6,1.6,9.1,4.7,9.1C103,64.5,104.6,61.5,104.6,55.5"/>
	<path id="XMLID_3854_" class="st0" d="M129.4,60.8c0,2.1-0.8,3.9-2.4,5.3c-1.6,1.5-3.8,2.2-6.4,2.2c-2.8,0-5.1-0.6-6.9-1.8l1.5-3.6
		c1.2,1,2.7,1.4,4.6,1.4c1.1,0,2.1-0.3,2.8-1c0.7-0.7,1.1-1.5,1.1-2.5s-0.3-1.9-0.8-2.5c-0.6-0.6-1.5-1.1-2.8-1.6
		c-3.8-1.4-5.7-3.8-5.7-6.9c0-2,0.7-3.7,2.2-5.1c1.5-1.4,3.3-2.1,5.7-2.1c2.5,0,4.7,0.6,6.4,1.7l-1.4,3.3c-1.1-0.9-2.4-1.4-3.9-1.4
		c-1.1,0-2,0.3-2.6,0.9c-0.6,0.6-0.9,1.4-0.9,2.3c0,1.6,1.2,2.9,3.7,3.9C127.4,55,129.4,57.5,129.4,60.8"/>
	<path id="XMLID_3855_" class="st0" d="M170.8,67.9h-6.5l-2.6-8.8h-11.1l-2.7,8.8h-5.7l11.4-34.4h6L170.8,67.9z M160.7,55.3
		l-3.5-12.1c-0.5-1.7-0.8-3.1-0.9-4.2h-0.1c-0.2,0.9-0.5,2.3-0.9,4.2l-3.7,12.1C151.6,55.3,160.7,55.3,160.7,55.3z"/>
	<path id="XMLID_3858_" class="st0" d="M193.9,67.9h-5.6V50.3c0-2.8-1.5-4.1-4.5-4.1c-1.4,0-2.7,0.2-3.9,0.7v21h-5.6V44.4
		c2.5-1.2,5.8-1.8,9.7-1.8c3.5,0,6,0.8,7.7,2.3c1.4,1.3,2.2,3,2.2,5.3L193.9,67.9L193.9,67.9z"/>
	<path id="XMLID_3859_" class="st0" d="M219.1,66.5c-2.1,1.2-5,1.8-8.6,1.8S204,67.2,202,65c-2-2.2-3-5.3-3-9.2c0-4,1-7.2,3-9.5
		s4.6-3.4,7.8-3.4c1.4,0,2.7,0.2,3.7,0.5v-10h5.6V66.5z M213.5,64.2V46.4c-0.7-0.2-1.6-0.3-2.5-0.3c-4.4,0-6.5,3.1-6.5,9.4
		c0,6.2,2,9.3,6.1,9.3C212,64.7,212.9,64.6,213.5,64.2"/>
	<path id="XMLID_3862_" class="st0" d="M244.7,55.3l-15.2,2.2c0.5,4.6,2.7,6.9,6.8,6.9c2.4,0,4.5-0.5,6.3-1.4l1.3,3.5
		c-2.1,1.2-4.8,1.7-8.2,1.7c-3.6,0-6.4-1.1-8.4-3.4c-2.1-2.2-3.1-5.4-3.1-9.6c0-4,0.9-7.1,2.8-9.4c1.9-2.2,4.5-3.4,7.7-3.4
		c3.3,0,5.8,1.1,7.5,3.2C244,48.1,244.8,51.2,244.7,55.3 M239.4,53.1c0-4.7-1.6-7-4.9-7c-1.7,0-3,0.7-4,2.1c-1,1.5-1.5,3.7-1.4,6.5
		L239.4,53.1z"/>
	<path id="XMLID_3865_" class="st0" d="M263.9,60.8c0,2.1-0.8,3.9-2.4,5.3c-1.6,1.5-3.8,2.2-6.4,2.2c-2.8,0-5.1-0.6-6.9-1.8l1.5-3.6
		c1.2,1,2.7,1.4,4.6,1.4c1.1,0,2.1-0.3,2.8-1c0.7-0.7,1.1-1.5,1.1-2.5s-0.3-1.9-0.8-2.5c-0.6-0.6-1.5-1.1-2.8-1.6
		c-3.8-1.4-5.7-3.8-5.7-6.9c0-2,0.7-3.7,2.2-5.1c1.5-1.4,3.3-2.1,5.7-2.1c2.5,0,4.7,0.6,6.4,1.7l-1.4,3.3c-1.1-0.9-2.4-1.4-3.9-1.4
		c-1.1,0-2,0.3-2.6,0.9c-0.6,0.6-0.9,1.4-0.9,2.3c0,1.6,1.2,2.9,3.7,3.9C261.9,55,263.9,57.5,263.9,60.8"/>
	<path id="XMLID_3866_" class="st0" d="M108.3,25.8h-3.6V14.6c0-1.8-0.9-2.6-2.8-2.6c-0.9,0-1.7,0.1-2.5,0.4v13.4h-3.6v-15
		c1.6-0.8,3.7-1.1,6.2-1.1c2.2,0,3.8,0.5,4.9,1.5c0.9,0.8,1.4,1.9,1.4,3.4V25.8z"/>
	<path id="XMLID_3867_" class="st0" d="M116,5.5c0,0.5-0.2,0.9-0.6,1.3c-0.4,0.3-0.8,0.5-1.4,0.5c-0.5,0-1-0.2-1.4-0.5
		S112,6,112,5.5s0.2-0.9,0.6-1.3c0.4-0.3,0.8-0.5,1.4-0.5c0.5,0,1,0.2,1.4,0.5S116,5,116,5.5 M115.8,25.8h-3.6V10h3.6V25.8z"/>
	<path id="XMLID_3870_" class="st0" d="M132.1,10L127,25.8h-3.4L118.5,10h3.8l2.8,10.2c0.2,0.8,0.3,1.5,0.4,2.2h0.1
		c0.1-0.6,0.2-1.3,0.4-2.2l2.8-10.2C128.8,10,132.1,10,132.1,10z"/>
	<path id="XMLID_3871_" class="st0" d="M147.1,17.8l-9.7,1.4c0.3,2.9,1.7,4.4,4.3,4.4c1.5,0,2.9-0.3,4-0.9l0.9,2.3
		c-1.4,0.7-3.1,1.1-5.2,1.1c-2.3,0-4.1-0.7-5.4-2.1c-1.3-1.4-2-3.5-2-6.1s0.6-4.6,1.8-6s2.8-2.2,4.9-2.2c2.1,0,3.7,0.7,4.8,2.1
		C146.6,13.1,147.1,15.1,147.1,17.8 M143.7,16.4c0-3-1-4.5-3.1-4.5c-1.1,0-1.9,0.4-2.5,1.3c-0.6,1-0.9,2.3-0.9,4.2L143.7,16.4z"/>
	<path id="XMLID_3874_" class="st0" d="M157.9,9.7l-0.7,2.6c-0.5-0.2-1.1-0.3-1.6-0.3c-0.7,0-1.3,0.1-1.7,0.4v13.3h-3.6v-15
		C152,10,154.6,9.6,157.9,9.7"/>
	<path id="XMLID_3875_" class="st0" d="M169.3,21.2c0,1.3-0.5,2.5-1.6,3.4c-1,0.9-2.4,1.4-4.1,1.4c-1.8,0-3.3-0.4-4.4-1.1l0.9-2.3
		c0.8,0.6,1.7,0.9,3,0.9c0.7,0,1.3-0.2,1.8-0.6s0.7-0.9,0.7-1.6s-0.2-1.2-0.5-1.6c-0.4-0.4-0.9-0.7-1.8-1c-2.4-0.9-3.6-2.4-3.6-4.4
		c0-1.3,0.5-2.4,1.4-3.3c0.9-0.9,2.1-1.3,3.6-1.3c1.6,0,3,0.4,4.1,1.1l-0.9,2.1c-0.7-0.6-1.6-0.9-2.5-0.9c-0.7,0-1.3,0.2-1.7,0.6
		c-0.4,0.4-0.6,0.9-0.6,1.5c0,1,0.8,1.9,2.3,2.5C168.1,17.6,169.3,19.1,169.3,21.2"/>
	<path id="XMLID_3876_" class="st0" d="M176.3,5.5c0,0.5-0.2,0.9-0.6,1.3c-0.4,0.3-0.8,0.5-1.4,0.5c-0.5,0-1-0.2-1.4-0.5
		s-0.6-0.8-0.6-1.3s0.2-0.9,0.6-1.3c0.4-0.3,0.8-0.5,1.4-0.5c0.5,0,1,0.2,1.4,0.5C176.1,4.5,176.3,5,176.3,5.5 M176.1,25.8h-3.6V10
		h3.6V25.8z"/>
	<path id="XMLID_3879_" class="st0" d="M192.4,24.9c-1.4,0.8-3.2,1.1-5.5,1.1s-4.1-0.7-5.4-2.1c-1.3-1.4-1.9-3.4-1.9-5.9
		s0.6-4.6,1.9-6.1c1.3-1.4,2.9-2.2,5-2.2c0.9,0,1.7,0.1,2.4,0.3V3.7h3.6v21.2H192.4z M188.8,23.4V12c-0.5-0.1-1-0.2-1.6-0.2
		c-2.8,0-4.2,2-4.2,6c0,3.9,1.3,5.9,3.9,5.9C187.8,23.8,188.4,23.7,188.8,23.4"/>
	<path id="XMLID_3882_" class="st0" d="M207.6,24.9c-1.4,0.8-3.3,1.1-5.7,1.1c-4.3,0-6.4-1.6-6.4-4.8c0-1.9,0.9-3.3,2.6-4.3
		c1.4-0.7,3.4-1.2,6.2-1.5v-0.9c0-1.7-1-2.6-3.1-2.6c-1.3,0-2.6,0.3-4,1l-0.8-2c1.6-0.8,3.4-1.2,5.4-1.2c3.9,0,5.8,1.8,5.8,5.5V24.9
		z M204.3,23.6v-6.5c-1.9,0.2-3.2,0.6-4,1.1c-1,0.6-1.5,1.6-1.5,2.9c0,2,1.1,2.9,3.3,2.9C203,24.1,203.7,23.9,204.3,23.6"/>
	<path id="XMLID_3885_" class="st0" d="M223.7,24.9c-1.4,0.8-3.2,1.1-5.5,1.1s-4.1-0.7-5.4-2.1c-1.3-1.4-1.9-3.4-1.9-5.9
		s0.6-4.6,1.9-6.1c1.2-1.4,2.9-2.2,5-2.2c0.9,0,1.7,0.1,2.4,0.3V3.7h3.6v21.2H223.7z M220.1,23.4V12c-0.5-0.1-1-0.2-1.6-0.2
		c-2.8,0-4.2,2-4.2,6c0,3.9,1.3,5.9,3.9,5.9C219.1,23.8,219.7,23.7,220.1,23.4"/>
	<path id="XMLID_3888_" class="st0" d="M78.7,3.8h3.8v17c0,1.9,1,2.8,3,2.8c1,0,1.8-0.2,2.6-0.5V3.8h3.8v21C90.2,25.6,88,26,85.3,26
		c-2.3,0-4.1-0.5-5.2-1.6c-1-0.9-1.5-2.1-1.5-3.6L78.7,3.8L78.7,3.8z"/>
</g>
</svg>
